<?xml version="1.0" encoding="utf-8"?>
<!-- Generator: Adobe Illustrator 26.5.0, SVG Export Plug-In . SVG Version: 6.00 Build 0)  -->
<svg version="1.1" id="Layer_1" xmlns="http://www.w3.org/2000/svg" xmlns:xlink="http://www.w3.org/1999/xlink" x="0px" y="0px"
	 viewBox="0 0 632.4 127.7" style="enable-background:new 0 0 632.4 127.7;" xml:space="preserve">
<style type="text/css">
	.st0{fill:none;stroke:#fb8500;stroke-width:5;stroke-miterlimit:10;}
	.st1{fill:none;stroke:#ffb703;stroke-width:5;stroke-miterlimit:10;}
	.st2{fill:none;stroke:#219ebc;stroke-width:5;stroke-miterlimit:10;}
</style>
<g id="Group_64" transform="translate(2.5 2.5)">
	<path id="Path_164" class="st0" d="M71.5,38.3L71.5,38.3c0-9.6,7.8-17.4,17.4-17.4h502.5c7.8,0,14.1,6.3,14.1,14.1c0,0,0,0,0,0
		v15.3c0,19.4-15.7,35.1-35.1,35.1H312.7c-7.7,0-13.9,6.2-13.9,13.9c0,0,0,0,0,0l0,0c0,8.9-7.2,16.1-16.1,16.1H22.6
		c-9.4,0-17-7.6-17-17l0,0V69.5c0-7.6,6.2-13.8,13.8-13.8l0,0h34.6C63.7,55.7,71.5,47.9,71.5,38.3C71.5,38.3,71.5,38.3,71.5,38.3z"
		/>
	<path id="Path_165" class="st1" d="M78,31L78,31c0-9.6,7.8-17.4,17.4-17.4h502.5c7.8,0,14.1,6.3,14.1,14.1v15.3
		c0,19.4-15.7,35.1-35.1,35.1H319.2c-7.7,0-13.9,6.2-13.9,13.9c0,0,0,0,0,0l0,0c0,8.9-7.2,16.1-16.1,16.1H29.1c-9.4,0-17-7.6-17-17
		c0,0,0,0,0,0V62.3c0-7.6,6.2-13.8,13.8-13.8c0,0,0,0,0,0h34.6C70.2,48.5,78,40.7,78,31z"/>
	<path id="Path_166" class="st2" d="M85.3,23.8L85.3,23.8c0-9.6,7.8-17.4,17.4-17.4h502.5c7.8,0,14.1,6.3,14.1,14.1v15.3
		c0,19.4-15.7,35.1-35.1,35.1H326.5c-7.7,0-13.9,6.2-13.9,13.9c0,0,0,0,0,0l0,0c0,8.9-7.2,16.1-16.1,16.1c0,0,0,0,0,0H36.4
		c-9.4,0-17-7.6-17-17l0,0V55c0-7.6,6.2-13.8,13.8-13.8l0,0h34.6C77.5,41.2,85.3,33.4,85.3,23.8C85.3,23.8,85.3,23.8,85.3,23.8z"/>
</g>
<g>
</g>
<g>
</g>
<g>
</g>
<g>
</g>
<g>
</g>
<g>
</g>
<g>
</g>
<g>
</g>
<g>
</g>
<g>
</g>
<g>
</g>
</svg>
