<?xml version="1.0" encoding="utf-8"?>
<!-- Generator: Adobe Illustrator 26.5.0, SVG Export Plug-In . SVG Version: 6.00 Build 0)  -->
<svg version="1.1" id="Layer_1" xmlns="http://www.w3.org/2000/svg" xmlns:xlink="http://www.w3.org/1999/xlink" x="0px" y="0px"
	 viewBox="0 0 965 1768" style="enable-background:new 0 0 965 1768;" xml:space="preserve">
<style type="text/css">
	.st0{fill:none;stroke:#fb8500;stroke-width:5;stroke-miterlimit:10;}
</style>
<g>
	<path class="st0" d="M22.6,0c9.2,30.3,38.7,43.6,65.8,56.6c37.5,18,77.3,31.8,114.1,51.3c18.2,9.6,51.1,24.4,54.6,47.7
		c3.4,22.7-24.7,42.1-40.3,53.6c-32.7,23.9-69.3,42.7-104.1,63.3c-26.1,15.4-55.2,30.9-75.5,53.9c-42.2,47.8,37.5,82.5,73,101.1
		c29.3,15.3,59.3,29.6,87.9,46.1c18.2,10.5,38.9,22,51.3,39.5c18.5,26.2-1.5,59.9-16.2,83.6c-30.3,49.1-76.3,96.7-46.5,156.7
		c22,44.3,87,96,67.2,151.1c-8.2,23-29.7,37-47.4,52.3c-20.5,17.6-31.5,32.8-35.7,59.5c-6.2,39.6-38.8,71.1-64.6,99.7
		c-27.3,30.3-62.4,61.9-78.4,100.2c-16.3,38.8,15.7,83,34.9,114.8c24,39.8,53.2,78.8,70,122.4c14.1,36.6,2.8,60.1-31.7,76.3
		c-23.4,11-59.9,18.1-73.4,42.8c-8.4,15.4-5.4,32.8-15.6,48.2c-13.7,20.6-35.1,36.9-53.9,52.4c-31.7,26-72.9,52-80.7,94.9"/>
	<path class="st0" d="M82.7,0c9.2,30.3,38.7,43.6,65.8,56.6c37.5,18,77.3,31.8,114.1,51.3c18.2,9.6,51.1,24.4,54.6,47.7
		c3.4,22.7-24.7,42.1-40.3,53.6c-32.7,23.9-69.3,42.7-104.1,63.3c-26.1,15.4-55.2,30.9-75.5,53.9c-42.2,47.8,37.5,82.5,73,101.1
		c29.3,15.3,59.3,29.6,87.9,46.1c18.2,10.5,38.9,22,51.3,39.5c18.5,26.2-1.5,59.9-16.2,83.6c-30.3,49.1-76.3,96.7-46.5,156.7
		c22,44.3,87,96,67.2,151.1c-8.2,23-29.7,37-47.4,52.3c-20.5,17.6-31.5,32.8-35.7,59.5c-6.2,39.6-38.8,71.1-64.6,99.7
		c-27.3,30.3-62.4,61.9-78.4,100.2c-16.3,38.8,15.7,83,34.9,114.8c24,39.8,53.2,78.8,70,122.4c14.1,36.6,2.8,60.1-31.7,76.3
		c-23.4,11-59.9,18.1-73.4,42.8c-8.4,15.4-5.4,32.8-15.6,48.2c-13.7,20.6-35.1,36.9-53.9,52.4c-31.7,26-72.9,52-80.7,94.9"/>
	<path class="st0" d="M142.8,0c9.2,30.3,38.7,43.6,65.8,56.6c37.5,18,77.3,31.8,114.1,51.3c18.2,9.6,51.1,24.4,54.6,47.7
		c3.4,22.7-24.7,42.1-40.3,53.6c-32.7,23.9-69.3,42.7-104.1,63.3c-26.1,15.4-55.2,30.9-75.5,53.9c-42.2,47.8,37.5,82.5,73,101.1
		c29.3,15.3,59.3,29.6,87.9,46.1c18.2,10.5,38.9,22,51.3,39.5c18.5,26.2-1.5,59.9-16.2,83.6c-30.3,49.1-76.3,96.7-46.5,156.7
		c22,44.3,87,96,67.2,151.1c-8.2,23-29.7,37-47.4,52.3c-20.5,17.6-31.5,32.8-35.7,59.5c-6.2,39.6-38.8,71.1-64.6,99.7
		c-27.3,30.3-62.4,61.9-78.4,100.2c-16.3,38.8,15.7,83,34.9,114.8c24,39.8,53.2,78.8,70,122.4c14.1,36.6,2.8,60.1-31.7,76.3
		c-23.4,11-59.9,18.1-73.4,42.8c-8.4,15.4-5.4,32.8-15.6,48.2c-13.7,20.6-35.1,36.9-53.9,52.4c-31.7,26-72.9,52-80.7,94.9"/>
	<path class="st0" d="M202.9,0c9.2,30.3,38.7,43.6,65.8,56.6c37.5,18,77.3,31.8,114.1,51.3c18.2,9.6,51.1,24.4,54.6,47.7
		c3.4,22.7-24.7,42.1-40.3,53.6c-32.7,23.9-69.3,42.7-104.1,63.3c-26.1,15.4-55.2,30.9-75.5,53.9c-42.2,47.8,37.5,82.5,73,101.1
		c29.3,15.3,59.3,29.6,87.9,46.1c18.2,10.5,38.9,22,51.3,39.5c18.5,26.2-1.5,59.9-16.2,83.6c-30.3,49.1-76.3,96.7-46.5,156.7
		c22,44.3,87,96,67.2,151.1c-8.2,23-29.7,37-47.4,52.3c-20.5,17.6-31.5,32.8-35.7,59.5c-6.2,39.6-38.8,71.1-64.6,99.7
		c-27.3,30.3-62.4,61.9-78.4,100.2c-16.3,38.8,15.7,83,34.9,114.8c24,39.8,53.2,78.8,70,122.4c14.1,36.6,2.8,60.1-31.7,76.3
		c-23.4,11-59.9,18.1-73.4,42.8c-8.4,15.4-5.4,32.8-15.6,48.2c-13.7,20.6-35.1,36.9-53.9,52.4c-31.7,26-72.9,52-80.7,94.9"/>
	<path class="st0" d="M263,0c9.2,30.3,38.7,43.6,65.8,56.6c37.5,18,77.3,31.8,114.1,51.3c18.2,9.6,51.1,24.4,54.6,47.7
		c3.4,22.7-24.7,42.1-40.3,53.6c-32.7,23.9-69.3,42.7-104.1,63.3c-26.1,15.4-55.2,30.9-75.5,53.9c-42.2,47.8,37.5,82.5,73,101.1
		c29.3,15.3,59.3,29.6,87.9,46.1c18.2,10.5,38.9,22,51.3,39.5c18.5,26.2-1.5,59.9-16.2,83.6c-30.3,49.1-76.3,96.7-46.5,156.7
		c22,44.3,87,96,67.2,151.1c-8.2,23-29.7,37-47.4,52.3c-20.5,17.6-31.5,32.8-35.7,59.5c-6.2,39.6-38.8,71.1-64.6,99.7
		c-27.3,30.3-62.4,61.9-78.4,100.2c-16.3,38.8,15.7,83,34.9,114.8c24,39.8,53.2,78.8,70,122.4c14.1,36.6,2.8,60.1-31.7,76.3
		c-23.4,11-59.9,18.1-73.4,42.8c-8.4,15.4-5.4,32.8-15.6,48.2c-13.7,20.6-35.1,36.9-53.9,52.4c-31.7,26-72.9,52-80.7,94.9"/>
	<path class="st0" d="M323,0c9.2,30.3,38.7,43.6,65.8,56.6c37.5,18,77.3,31.8,114.1,51.3c18.2,9.6,51.1,24.4,54.6,47.7
		c3.4,22.7-24.7,42.1-40.3,53.6c-32.7,23.9-69.3,42.7-104.1,63.3c-26.1,15.4-55.2,30.9-75.5,53.9c-42.2,47.8,37.5,82.5,73,101.1
		c29.3,15.3,59.3,29.6,87.9,46.1c18.2,10.5,38.9,22,51.3,39.5c18.5,26.2-1.5,59.9-16.2,83.6c-30.3,49.1-76.3,96.7-46.5,156.7
		c22,44.3,87,96,67.2,151.1c-8.2,23-29.7,37-47.4,52.3c-20.5,17.6-31.5,32.8-35.7,59.5c-6.2,39.6-38.8,71.1-64.6,99.7
		c-27.3,30.3-62.4,61.9-78.4,100.2c-16.3,38.8,15.7,83,34.9,114.8c24,39.8,53.2,78.8,70,122.4c14.1,36.6,2.8,60.1-31.7,76.3
		c-23.4,11-59.9,18.1-73.4,42.8c-8.4,15.4-5.4,32.8-15.6,48.2c-13.7,20.6-35.1,36.9-53.9,52.4c-31.7,26-72.9,52-80.7,94.9"/>
	<path class="st0" d="M383.1,0c9.2,30.3,38.7,43.6,65.8,56.6c37.5,18,77.3,31.8,114.1,51.3c18.2,9.6,51.1,24.4,54.6,47.7
		c3.4,22.7-24.7,42.1-40.3,53.6c-32.7,23.9-69.3,42.7-104.1,63.3c-26.1,15.4-55.2,30.9-75.5,53.9c-42.2,47.8,37.5,82.5,73,101.1
		c29.3,15.3,59.3,29.6,87.9,46.1c18.2,10.5,38.9,22,51.3,39.5c18.5,26.2-1.5,59.9-16.2,83.6c-30.3,49.1-76.3,96.7-46.5,156.7
		c22,44.3,87,96,67.2,151.1c-8.2,23-29.7,37-47.4,52.3c-20.5,17.6-31.5,32.8-35.7,59.5c-6.2,39.6-38.8,71.1-64.6,99.7
		c-27.3,30.3-62.4,61.9-78.4,100.2c-16.3,38.8,15.7,83,34.9,114.8c24,39.8,53.2,78.8,70,122.4c14.1,36.6,2.8,60.1-31.7,76.3
		c-23.4,11-59.9,18.1-73.4,42.8c-8.4,15.4-5.4,32.8-15.6,48.2c-13.7,20.6-35.1,36.9-53.9,52.4c-31.7,26-72.9,52-80.7,94.9"/>
	<path class="st0" d="M443.2,0c9.2,30.3,38.7,43.6,65.8,56.6c37.5,18,77.3,31.8,114.1,51.3c18.2,9.6,51.1,24.4,54.6,47.7
		c3.4,22.7-24.7,42.1-40.3,53.6c-32.7,23.9-69.3,42.7-104.1,63.3c-26.1,15.4-55.2,30.9-75.5,53.9c-42.2,47.8,37.5,82.5,73,101.1
		c29.3,15.3,59.3,29.6,87.9,46.1c18.2,10.5,38.9,22,51.3,39.5c18.5,26.2-1.5,59.9-16.2,83.6c-30.3,49.1-76.3,96.7-46.5,156.7
		c22,44.3,87,96,67.2,151.1c-8.2,23-29.7,37-47.4,52.3c-20.5,17.6-31.5,32.8-35.7,59.5c-6.2,39.6-38.8,71.1-64.6,99.7
		c-27.3,30.3-62.4,61.9-78.4,100.2c-16.3,38.8,15.7,83,34.9,114.8c24,39.8,53.2,78.8,70,122.4c14.1,36.6,2.8,60.1-31.7,76.3
		c-23.4,11-59.9,18.1-73.4,42.8c-8.4,15.4-5.4,32.8-15.6,48.2c-13.7,20.6-35.1,36.9-53.9,52.4c-31.7,26-72.9,52-80.7,94.9"/>
	<path class="st0" d="M503.3,0c9.2,30.3,38.7,43.6,65.8,56.6c37.5,18,77.3,31.8,114.1,51.3c18.2,9.6,51.1,24.4,54.6,47.7
		c3.4,22.7-24.7,42.1-40.3,53.6c-32.7,23.9-69.3,42.7-104.1,63.3c-26.1,15.4-55.2,30.9-75.5,53.9c-42.2,47.8,37.5,82.5,73,101.1
		c29.3,15.3,59.3,29.6,87.9,46.1c18.2,10.5,38.9,22,51.3,39.5c18.5,26.2-1.5,59.9-16.2,83.6c-30.3,49.1-76.3,96.7-46.5,156.7
		c22,44.3,87,96,67.2,151.1c-8.2,23-29.7,37-47.4,52.3c-20.5,17.6-31.5,32.8-35.7,59.5c-6.2,39.6-38.8,71.1-64.6,99.7
		c-27.3,30.3-62.4,61.9-78.4,100.2c-16.3,38.8,15.7,83,34.9,114.8c24,39.8,53.2,78.8,70,122.4c14.1,36.6,2.8,60.1-31.7,76.3
		c-23.4,11-59.9,18.1-73.4,42.8c-8.4,15.4-5.4,32.8-15.6,48.2c-13.7,20.6-35.1,36.9-53.9,52.4c-31.7,26-72.9,52-80.7,94.9"/>
	<path class="st0" d="M563.4,0c9.2,30.3,38.7,43.6,65.8,56.6c37.5,18,77.3,31.8,114.1,51.3c18.2,9.6,51.1,24.4,54.6,47.7
		c3.4,22.7-24.7,42.1-40.3,53.6c-32.7,23.9-69.3,42.7-104.1,63.3c-26.1,15.4-55.2,30.9-75.5,53.9c-42.2,47.8,37.5,82.5,73,101.1
		c29.3,15.3,59.3,29.6,87.9,46.1c18.2,10.5,38.9,22,51.3,39.5c18.5,26.2-1.5,59.9-16.2,83.6c-30.3,49.1-76.3,96.7-46.5,156.7
		c22,44.3,87,96,67.2,151.1c-8.2,23-29.7,37-47.4,52.3c-20.5,17.6-31.5,32.8-35.7,59.5c-6.2,39.6-38.8,71.1-64.6,99.7
		c-27.3,30.3-62.4,61.9-78.4,100.2c-16.3,38.8,15.7,83,34.9,114.8c24,39.8,53.2,78.8,70,122.4c14.1,36.6,2.8,60.1-31.7,76.3
		c-23.4,11-59.9,18.1-73.4,42.8c-8.4,15.4-5.4,32.8-15.6,48.2c-13.7,20.6-35.1,36.9-53.9,52.4c-31.7,26-72.9,52-80.7,94.9"/>
	<path class="st0" d="M623.5,0c9.2,30.3,38.7,43.6,65.8,56.6c37.5,18,77.3,31.8,114.1,51.3c18.2,9.6,51.1,24.4,54.6,47.7
		c3.4,22.7-24.7,42.1-40.3,53.6c-32.7,23.9-69.3,42.7-104.1,63.3c-26.1,15.4-55.2,30.9-75.5,53.9c-42.2,47.8,37.5,82.5,73,101.1
		c29.3,15.3,59.3,29.6,87.9,46.1c18.2,10.5,38.9,22,51.3,39.5c18.5,26.2-1.5,59.9-16.2,83.6c-30.3,49.1-76.3,96.7-46.5,156.7
		c22,44.3,87,96,67.2,151.1c-8.2,23-29.7,37-47.4,52.3c-20.5,17.6-31.5,32.8-35.7,59.5c-6.2,39.6-38.8,71.1-64.6,99.7
		c-27.3,30.3-62.4,61.9-78.4,100.2c-16.3,38.8,15.7,83,34.9,114.8c24,39.8,53.2,78.8,70,122.4c14.1,36.6,2.8,60.1-31.7,76.3
		c-23.4,11-59.9,18.1-73.4,42.8c-8.4,15.4-5.4,32.8-15.6,48.2c-13.7,20.6-35.1,36.9-53.9,52.4c-31.7,26-72.9,52-80.7,94.9"/>
	<path class="st0" d="M683.6,0c9.2,30.3,38.7,43.6,65.8,56.6c37.5,18,77.3,31.8,114.1,51.3c18.2,9.6,51.1,24.4,54.6,47.7
		c3.4,22.7-24.7,42.1-40.3,53.6c-32.7,23.9-69.3,42.7-104.1,63.3c-26.1,15.4-55.2,30.9-75.5,53.9c-42.2,47.8,37.5,82.5,73,101.1
		c29.3,15.3,59.3,29.6,87.9,46.1c18.2,10.5,38.9,22,51.3,39.5c18.5,26.2-1.5,59.9-16.2,83.6c-30.3,49.1-76.3,96.7-46.5,156.7
		c22,44.3,87,96,67.2,151.1c-8.2,23-29.7,37-47.4,52.3c-20.5,17.6-31.5,32.8-35.7,59.5c-6.2,39.6-38.8,71.1-64.6,99.7
		c-27.3,30.3-62.4,61.9-78.4,100.2c-16.3,38.8,15.7,83,34.9,114.8c24,39.8,53.2,78.8,70,122.4c14.1,36.6,2.8,60.1-31.7,76.3
		c-23.4,11-59.9,18.1-73.4,42.8c-8.4,15.4-5.4,32.8-15.6,48.2c-13.7,20.6-35.1,36.9-53.9,52.4c-31.7,26-72.9,52-80.7,94.9"/>
</g>
<g>
</g>
<g>
</g>
<g>
</g>
<g>
</g>
<g>
</g>
<g>
</g>
<g>
</g>
<g>
</g>
<g>
</g>
<g>
</g>
<g>
</g>
</svg>
